<svg xmlns="http://www.w3.org/2000/svg" width="56" height="56" viewBox="0 0 56 56" fill="none">
  <path d="M 48 0 C 52.418 0 56 3.582 56 8 L 56 48 C 56 52.28 52.639 55.775 48.412 55.989 L 48 56 L 8 56 L 7.588 55.989 C 3.498 55.782 0.218 52.502 0.011 48.412 L 0 48 L 0 8 C 0 3.582 3.582 0 8 0 L 48 0 Z M 8 1 C 4.134 1 1 4.134 1 8 L 1 48 C 1 51.866 4.134 55 8 55 L 48 55 C 51.866 55 55 51.866 55 48 L 55 8 C 55 4.134 51.866 1 48 1 L 8 1 Z M 28 9.849 C 28.297 9.849 28.533 10.074 28.543 10.371 L 28.974 21.769 C 29.004 22.568 29.219 23.348 29.619 24.096 C 30.429 23.85 31.136 23.449 31.72 22.906 L 37.542 17.505 C 37.86 17.218 38.269 17.3 38.484 17.525 C 38.71 17.741 38.792 18.151 38.505 18.458 L 33.104 24.279 C 32.56 24.864 32.161 25.571 31.915 26.381 C 32.663 26.78 33.442 26.996 34.241 27.026 L 45.639 27.457 L 45.629 27.457 C 45.926 27.468 46.151 27.703 46.151 28 C 46.151 28.297 45.926 28.532 45.629 28.543 L 34.231 28.974 C 33.432 29.004 32.652 29.219 31.904 29.619 C 32.15 30.429 32.551 31.136 33.094 31.721 L 38.495 37.542 C 38.782 37.849 38.7 38.249 38.475 38.475 C 38.259 38.7 37.86 38.782 37.542 38.495 L 31.72 33.094 C 31.136 32.551 30.429 32.151 29.619 31.905 C 29.219 32.653 29.004 33.432 28.974 34.231 L 28.543 45.629 C 28.533 45.926 28.297 46.151 28 46.151 C 27.703 46.151 27.466 45.926 27.456 45.629 L 27.026 34.231 C 26.996 33.432 26.78 32.653 26.38 31.905 C 25.57 32.151 24.863 32.551 24.279 33.094 L 18.458 38.495 C 18.192 38.741 17.781 38.721 17.524 38.475 C 17.299 38.259 17.217 37.849 17.504 37.542 L 22.905 31.721 C 23.448 31.136 23.849 30.429 24.095 29.619 C 23.347 29.22 22.568 29.004 21.769 28.974 L 10.371 28.543 C 10.074 28.533 9.848 28.297 9.848 28 C 9.848 27.703 10.074 27.467 10.371 27.457 L 21.769 27.026 C 22.568 26.996 23.347 26.781 24.095 26.381 C 23.849 25.571 23.448 24.864 22.905 24.279 L 17.504 18.458 C 17.217 18.151 17.299 17.751 17.524 17.525 C 17.74 17.3 18.151 17.218 18.458 17.505 L 24.279 22.906 C 24.863 23.449 25.57 23.85 26.38 24.096 C 26.78 23.348 26.996 22.568 27.026 21.769 L 27.456 10.371 C 27.466 10.074 27.703 9.849 28 9.849 Z M 28.86 31.731 C 28.297 31.639 27.733 31.639 27.17 31.731 C 27.569 32.531 27.785 33.361 27.815 34.211 L 28.01 39.438 L 28.205 34.211 C 28.236 33.36 28.451 32.531 28.851 31.731 L 28.86 31.731 Z M 24.769 30.046 C 24.482 30.894 24.042 31.63 23.47 32.254 L 19.913 36.087 L 23.746 32.53 C 24.361 31.956 25.109 31.526 25.96 31.239 C 25.624 30.781 25.226 30.383 24.769 30.046 Z M 31.229 30.05 C 30.767 30.388 30.367 30.788 30.029 31.249 C 30.88 31.526 31.618 31.967 32.243 32.541 L 36.076 36.087 L 32.53 32.254 C 31.956 31.629 31.525 30.891 31.238 30.04 L 31.229 30.05 Z M 29.25 24.987 C 28.43 25.151 27.569 25.151 26.749 24.987 C 26.288 25.684 25.683 26.289 24.986 26.75 C 25.15 27.57 25.15 28.431 24.986 29.251 C 25.683 29.712 26.288 30.317 26.749 31.014 C 27.169 30.932 27.58 30.891 28 30.891 L 28 30.911 C 28.42 30.911 28.83 30.952 29.25 31.034 C 29.721 30.327 30.326 29.722 31.023 29.261 C 30.859 28.431 30.859 27.59 31.023 26.76 C 30.316 26.288 29.721 25.694 29.25 24.987 Z M 31.73 27.16 C 31.638 27.724 31.638 28.287 31.73 28.851 L 31.73 28.841 C 32.53 28.441 33.36 28.226 34.211 28.195 L 39.428 28 L 34.211 27.806 C 33.371 27.775 32.53 27.56 31.73 27.16 Z M 24.269 27.16 C 23.469 27.56 22.639 27.775 21.788 27.806 L 16.571 28 L 21.788 28.195 C 22.628 28.226 23.469 28.441 24.269 28.841 C 24.361 28.277 24.361 27.713 24.269 27.149 L 24.269 27.16 Z M 23.459 23.747 C 24.043 24.372 24.474 25.11 24.761 25.961 C 25.222 25.623 25.622 25.223 25.96 24.762 C 25.109 24.485 24.371 24.044 23.746 23.47 L 19.913 19.913 L 23.459 23.747 Z M 32.253 23.46 C 31.638 24.044 30.89 24.475 30.039 24.762 C 30.377 25.223 30.777 25.623 31.238 25.961 L 31.238 25.95 C 31.515 25.1 31.956 24.362 32.53 23.736 L 36.086 19.903 L 32.253 23.46 Z M 27.795 21.789 C 27.764 22.629 27.549 23.47 27.149 24.27 C 27.713 24.362 28.276 24.362 28.84 24.27 C 28.44 23.47 28.225 22.64 28.194 21.789 L 28 16.695 L 27.795 21.789 Z" fill="currentColor" fill-rule="nonzero"></path>
</svg>