<svg width="56" height="56" viewBox="0 0 56 56" fill="none" xmlns="http://www.w3.org/2000/svg">
<path d="M48 0C52.4183 0 56 3.58172 56 8V48C56 52.2801 52.6389 55.7748 48.4121 55.9893L48 56H8L7.58789 55.9893C3.49764 55.7817 0.218304 52.5024 0.0107422 48.4121L0 48V8C0 3.58172 3.58172 1.93277e-07 8 0H48ZM8 1C4.13401 1 1 4.13401 1 8V48C1 51.866 4.13401 55 8 55H48C51.866 55 55 51.866 55 48V8C55 4.13401 51.866 1 48 1H8ZM19.8613 9.70996C20.0516 9.70996 20.2269 9.81469 20.3154 9.9834L22.5742 14.2705L24.833 9.9834C25.0103 9.64642 25.5619 9.64645 25.7393 9.9834L27.999 14.2705L30.2578 9.9834C30.4361 9.64627 30.9869 9.64615 31.165 9.9834L33.4238 14.2705L35.6826 9.9834C35.8609 9.6462 36.4117 9.64613 36.5898 9.9834L45.957 27.7607C46.0361 27.9099 46.036 28.0891 45.957 28.2393L36.5898 46.0176C36.5008 46.1855 36.3267 46.2899 36.1367 46.29C35.9465 46.29 35.7717 46.1857 35.6826 46.0176L33.4238 41.7295L31.165 46.0176C31.0759 46.1857 30.9011 46.29 30.7109 46.29C30.5209 46.2899 30.3468 46.1855 30.2578 46.0176L27.999 41.7295L25.7402 46.0176C25.6517 46.1857 25.4763 46.29 25.2861 46.29C25.0961 46.2899 24.9216 46.1855 24.833 46.0176L22.5742 41.7305L20.3154 46.0176C20.2269 46.1855 20.0523 46.2899 19.8623 46.29C19.6721 46.29 19.4968 46.1857 19.4082 46.0176L10.041 28.2393C9.9624 28.0891 9.9624 27.9099 10.041 27.7607L19.4082 9.9834C19.4967 9.81486 19.6713 9.71007 19.8613 9.70996ZM11.0732 28L19.8623 44.6787L21.9951 40.6309L15.4658 28.2393C15.3872 28.0891 15.3872 27.9099 15.4658 27.7607L21.9951 15.3701L19.8623 11.3213L11.0732 28ZM23.1533 40.6309L25.2861 44.6787L27.4199 40.6299L25.2861 36.582L23.1533 40.6309ZM28.5781 40.6309L30.7109 44.6787L32.8447 40.6309L30.7109 36.582L28.5781 40.6309ZM34.0029 15.3701L40.5322 27.7617C40.6111 27.9108 40.6112 28.0892 40.5322 28.2393L34.0029 40.6309L36.1357 44.6787L44.9238 28L36.1357 11.3223L34.0029 15.3701ZM16.498 28L22.5742 39.5312L24.707 35.4824L20.8906 28.2393C20.8121 28.0891 20.8121 27.9099 20.8906 27.7607L24.707 20.5176L22.5742 16.4688L16.498 28ZM25.8662 35.4824L27.999 39.5312L30.1318 35.4824L27.999 31.4346L25.8662 35.4824ZM31.291 20.5176L35.1074 27.7607C35.1864 27.9099 35.1864 28.0891 35.1074 28.2393L31.291 35.4824L33.4238 39.5312L39.499 28L33.4238 16.4697L31.291 20.5176ZM21.9229 28L25.2861 34.3828L27.4199 30.335L26.3154 28.2393C26.2368 28.0891 26.2368 27.9099 26.3154 27.7607L27.4199 25.666L25.2861 21.6172L21.9229 28ZM28.5781 25.665L29.6826 27.7607C29.7616 27.9099 29.7616 28.0891 29.6826 28.2393L28.5781 30.335L30.7109 34.3828L34.0742 28L30.7109 21.6172L28.5781 25.665ZM27.3477 28L27.999 29.2354L28.6494 28L27.999 26.7646L27.3477 28ZM25.8652 20.5176L27.999 24.5664L30.1318 20.5176L27.999 16.4697L25.8652 20.5176ZM23.1533 15.3701L25.2861 19.4189L27.4199 15.3701L25.2861 11.3223L23.1533 15.3701ZM28.5781 15.3701L30.7109 19.4189L32.8447 15.3701L30.7109 11.3223L28.5781 15.3701Z" fill="#3E4040"></path>
</svg>