<svg width="64" height="64" viewBox="0 0 64 64" fill="none" xmlns="http://www.w3.org/2000/svg">
<rect width="64" height="64" fill="white"></rect>
<path d="M51.8129 31.0346L33.9112 13.1328L32.1765 11.3982L18.7005 24.8742L12.5383 31.0346C12.2305 31.344 12.0577 31.7626 12.0577 32.1991C12.0577 32.6355 12.2305 33.0542 12.5383 33.3635L24.8498 45.6751L32.1765 52.9999L45.6507 39.5239L45.8605 39.3159L51.8129 33.3728C51.9672 33.2197 52.0896 33.0376 52.1731 32.8369C52.2567 32.6363 52.2997 32.4211 52.2997 32.2037C52.2997 31.9864 52.2567 31.7712 52.1731 31.5705C52.0896 31.3699 51.9672 31.1877 51.8129 31.0346ZM32.1765 38.3502L26.0254 32.1991L32.1765 26.048L38.3258 32.1991L32.1765 38.3502Z" fill="#2684FF"></path>
<path d="M32.1765 26.048C30.242 24.1139 29.1515 21.4929 29.1431 18.7574C29.1348 16.0219 30.2093 13.3942 32.1319 11.4484L18.6727 24.9021L25.9975 32.227L32.1765 26.048Z" fill="url(#paint0_linear_193_329)"></path>
<path d="M38.3425 32.1824L32.1765 38.3502C34.1184 40.2926 35.2092 42.9267 35.2092 45.6732C35.2092 48.4198 34.1184 51.0539 32.1765 52.9962L45.673 39.5073L38.3425 32.1824Z" fill="url(#paint1_linear_193_329)"></path>
<defs>
<linearGradient id="paint0_linear_193_329" x1="31.0752" y1="19.8244" x2="22.4855" y2="28.4122" gradientUnits="userSpaceOnUse">
<stop offset="0.18" stop-color="#0052CC"></stop>
<stop offset="1" stop-color="#2684FF"></stop>
</linearGradient>
<linearGradient id="paint1_linear_193_329" x1="33.3503" y1="44.4995" x2="41.9232" y2="35.9284" gradientUnits="userSpaceOnUse">
<stop offset="0.18" stop-color="#0052CC"></stop>
<stop offset="1" stop-color="#2684FF"></stop>
</linearGradient>
</defs>
</svg>